HIERARCHY
ROOT SpineBase
{
  OFFSET 0.000000 0.000000 0.000000
  CHANNELS 6 Xposition Yposition Zposition Zrotation Xrotation Yrotation
  JOINT SpineMid
  {
    OFFSET -0.000000 32.014900 0.000000
    CHANNELS 3 Zrotation Xrotation Yrotation
    JOINT SpineShoulder
    {
      OFFSET 0.173640 23.723551 -0.802859
      CHANNELS 3 Zrotation Xrotation Yrotation
      JOINT Neck
      {
        OFFSET 0.133694 7.837189 -0.601273
        CHANNELS 3 Zrotation Xrotation Yrotation
        JOINT Head
        {
          OFFSET -5.907686 13.730108 -1.994877
          CHANNELS 3 Zrotation Xrotation Yrotation
          End Site
          {
            OFFSET 0 0 0
          }
        }
      }
      JOINT ShoulderLeft
      {
        OFFSET -17.237983 -7.151193 6.038394
        CHANNELS 3 Zrotation Xrotation Yrotation
        JOINT ElbowLeft
        {
          OFFSET -0.948253 -27.235683 2.000731
          CHANNELS 3 Zrotation Xrotation Yrotation
          JOINT WristLeft
          {
            OFFSET 0.816419 -22.590203 -3.491297
            CHANNELS 3 Zrotation Xrotation Yrotation
            JOINT HandLeft
            {
              OFFSET 0.118929 -7.047445 -0.376411
              CHANNELS 3 Zrotation Xrotation Yrotation
              JOINT HandTipLeft
              {
                OFFSET 1.056066 -7.419538 0.421372
                CHANNELS 3 Zrotation Xrotation Yrotation
                End Site
                {
                  OFFSET 0 0 0
                }
              }
              JOINT ThumbLeft
              {
                OFFSET -2.779956 0.595155 -2.716925
                CHANNELS 3 Zrotation Xrotation Yrotation
                End Site
                {
                  OFFSET 0 0 0
                }
              }
            }
          }
        }
      }
      JOINT ShoulderRight
      {
        OFFSET 15.755273 -3.539717 -8.696294
        CHANNELS 3 Zrotation Xrotation Yrotation
        JOINT ElbowRight
        {
          OFFSET 6.389863 -25.863037 -2.669335
          CHANNELS 3 Zrotation Xrotation Yrotation
          JOINT WristRight
          {
            OFFSET -1.451247 -24.876945 -6.155584
            CHANNELS 3 Zrotation Xrotation Yrotation
            JOINT HandRight
            {
              OFFSET -1.218211 -7.367523 -1.004978
              CHANNELS 3 Zrotation Xrotation Yrotation
              JOINT HandTipRight
              {
                OFFSET -0.570593 -6.367474 -0.201031
                CHANNELS 3 Zrotation Xrotation Yrotation
                End Site
                {
                  OFFSET 0 0 0
                }
              }
              JOINT ThumbRight
              {
                OFFSET 3.248143 -0.930285 -1.690121
                CHANNELS 3 Zrotation Xrotation Yrotation
                End Site
                {
                  OFFSET 0 0 0
                }
              }
            }
          }
        }
      }
    }
  }
  JOINT HipLeft
  {
    OFFSET -6.055739 0.084625 -1.173797
    CHANNELS 3 Zrotation Xrotation Yrotation
    JOINT KneeLeft
    {
      OFFSET 3.638057 -33.635455 5.581046
      CHANNELS 3 Zrotation Xrotation Yrotation
      JOINT AnkleLeft
      {
        OFFSET 9.186254 -36.761900 9.377395
        CHANNELS 3 Zrotation Xrotation Yrotation
        JOINT FootLeft
        {
          OFFSET -4.440547 -3.094106 -15.001367
          CHANNELS 3 Zrotation Xrotation Yrotation
          End Site
          {
            OFFSET 0 0 0
          }
        }
      }
    }
  }
  JOINT HipRight
  {
    OFFSET 7.572716 1.617032 -6.140819
    CHANNELS 3 Zrotation Xrotation Yrotation
    JOINT KneeRight
    {
      OFFSET 10.660042 -34.728560 2.881908
      CHANNELS 3 Zrotation Xrotation Yrotation
      JOINT AnkleRight
      {
        OFFSET 2.618307 -36.433627 8.959071
        CHANNELS 3 Zrotation Xrotation Yrotation
        JOINT FootRight
        {
          OFFSET -2.312369 -6.310443 -8.916286
          CHANNELS 3 Zrotation Xrotation Yrotation
          End Site
          {
            OFFSET 0 0 0
          }
        }
      }
    }
  }
}
MOTION
Frames: 16
Frame Time: 0.033333
-67.665977 84.731544 325.473449 0.000000 0.000000 20.024757 -0.000000 0.000000 -20.024757 -0.000000 0.000000 0.000000 -0.000000 0.000000 0.000000 0.000000 0.000000 0.000000 -0.000000 0.000000 0.000000 -0.000000 0.000000 0.000000 -0.000000 0.000000 0.000000 -0.000000 0.000000 0.000000 0.000000 0.000000 0.000000 0.000000 0.000000 0.000000 -0.000000 0.000000 0.000000 -0.000000 0.000000 0.000000 -0.000000 0.000000 0.000000 -0.000000 0.000000 0.000000 0.000000 0.000000 0.000000 0.000000 0.000000 0.000000 -0.000000 0.000000 -20.024757 -0.000000 0.000000 0.000000 -0.000000 0.000000 0.000000 0.000000 0.000000 0.000000 -0.000000 0.000000 -20.024757 -0.000000 0.000000 0.000000 -0.000000 0.000000 0.000000 0.000000 0.000000 0.000000
-67.633733 84.741019 325.562925 0.007727 -0.026150 20.417881 0.001881 0.027202 -20.417879 -0.000000 0.000000 0.000000 -0.000000 0.000000 0.000000 0.000000 0.000000 0.000000 -0.000000 0.000000 0.000000 -0.000000 0.000000 0.000000 1.062461 3.218264 -0.032219 0.515093 1.126592 0.709838 0.000000 0.000000 0.000000 0.000000 0.000000 0.000000 -0.000000 0.000000 0.000000 -0.000000 0.000000 0.000000 -0.000000 0.000000 0.000000 1.232701 2.030824 -0.242869 0.000000 0.000000 0.000000 0.000000 0.000000 0.000000 0.001881 0.027202 -20.417879 -0.000000 0.000000 0.000000 2.226640 -6.471575 -1.967382 0.000000 0.000000 0.000000 0.001881 0.027202 -20.417879 -0.000000 0.000000 0.000000 -1.836826 6.181222 0.395057 0.000000 0.000000 0.000000
-67.607999 84.748852 325.637121 0.010592 -0.047671 20.730256 0.006968 0.048334 -20.730255 -0.000000 0.000000 0.000000 -0.000000 0.000000 0.000000 0.000000 0.000000 0.000000 -0.000000 0.000000 0.000000 -0.000000 0.000000 0.000000 2.040120 6.023810 -0.114227 0.802896 1.937831 1.298432 0.000000 0.000000 0.000000 0.000000 0.000000 0.000000 -0.000000 0.000000 0.000000 -0.000000 0.000000 0.000000 -1.311054 -0.296584 0.224145 3.546414 3.925855 -0.710152 0.000000 0.000000 0.000000 0.000000 0.000000 0.000000 0.006968 0.048334 -20.730255 -0.000000 0.000000 0.000000 4.541414 -13.921867 -3.974512 0.000000 0.000000 0.000000 0.006968 0.048334 -20.730255 -0.000000 0.000000 0.000000 -3.166100 10.516637 0.790743 0.000000 0.000000 0.000000
-67.588774 84.755044 325.696038 0.008590 -0.064555 20.962521 0.015074 0.063356 -20.962524 -0.000000 0.000000 0.000000 -0.000000 0.000000 0.000000 0.000000 0.000000 0.000000 0.113299 0.824801 -0.021222 -0.113005 -0.824841 0.019593 2.916863 8.356045 -0.226704 0.889540 2.441683 1.757086 0.000000 0.000000 0.000000 0.000000 0.000000 0.000000 -0.000000 0.000000 0.000000 -0.000000 0.000000 0.000000 -1.812671 -0.341353 0.297665 4.762289 5.102916 -0.970316 0.000000 0.000000 0.000000 0.000000 0.000000 0.000000 0.015074 0.063356 -20.962524 -0.000000 0.000000 0.000000 6.808535 -21.938769 -5.895194 0.000000 0.000000 0.000000 0.015074 0.063356 -20.962524 -0.000000 0.000000 0.000000 -4.088767 13.442911 1.113088 0.000000 0.000000 0.000000
-67.576057 84.759593 325.739675 0.001718 -0.076796 21.115143 0.026063 0.072259 -21.115158 -0.000000 0.000000 0.000000 -0.042440 0.759464 0.321256 0.000000 0.000000 0.000000 0.142016 0.994130 -0.025430 -0.141596 -0.994190 0.022969 3.677583 10.171204 -0.349938 0.804111 2.664140 2.082221 0.000000 0.000000 0.000000 0.000000 0.000000 0.000000 -0.000000 0.000000 0.000000 -0.000000 0.000000 0.000000 -2.218164 -0.318829 0.348172 5.569957 5.716879 -1.129170 0.000000 0.000000 0.000000 0.000000 0.000000 0.000000 0.026063 0.072259 -21.115158 -0.000000 0.000000 0.000000 8.873737 -29.833474 -7.606823 0.000000 0.000000 0.000000 0.026063 0.072259 -21.115158 -0.000000 0.000000 0.000000 -4.669838 15.260471 1.330702 0.000000 0.000000 0.000000
-67.569849 84.762501 325.768033 -0.010025 -0.084390 21.188411 0.039848 0.075062 -21.188444 -0.000000 0.000000 0.000000 -0.028370 0.756345 0.321846 0.000000 0.000000 0.000000 0.166199 1.110783 -0.028098 -0.165685 -1.110860 0.024881 4.308723 11.439303 -0.465530 0.571318 2.634420 2.273317 0.000000 0.000000 0.000000 0.000000 0.000000 0.000000 -0.000000 0.000000 0.000000 -0.000000 0.000000 0.000000 -2.531084 -0.229661 0.376938 5.961267 5.763135 -1.173466 0.000000 0.000000 0.000000 0.000000 0.000000 0.000000 0.237485 0.917487 -21.117321 0.119145 -0.857055 -0.071944 10.602071 -36.846363 -9.034496 0.000000 0.000000 0.000000 0.039848 0.075062 -21.188444 -0.000000 0.000000 0.000000 -4.948319 16.151400 1.430997 0.000000 0.000000 0.000000
-67.583453 84.761726 325.763743 -0.043041 -0.084057 21.078425 0.070392 0.062953 -21.078495 -0.000000 0.000000 0.000000 -0.000000 0.000000 0.000000 0.000000 0.000000 0.000000 0.154853 1.167137 -0.030863 -0.154257 -1.167216 0.027715 4.800549 12.896582 -0.576980 0.062151 0.520894 2.215436 0.000000 0.000000 0.000000 0.000000 0.000000 0.000000 -0.000000 0.000000 0.000000 -0.315577 0.886141 0.028772 -2.165489 -0.283498 0.188817 5.542032 2.377565 -0.638064 0.000000 0.000000 0.000000 0.000000 0.000000 0.000000 0.577970 0.866226 -20.950996 -0.186834 -0.931642 -0.133134 13.438506 -49.276069 -11.566029 0.000000 0.000000 0.000000 0.070392 0.062953 -21.078495 -0.000000 0.000000 0.000000 -3.655267 12.276124 0.897133 0.000000 0.000000 0.000000
-67.603416 84.762609 325.753425 -0.074819 -0.070255 20.924222 0.094975 0.038901 -20.924300 -0.000000 0.000000 0.000000 -0.000000 0.000000 0.000000 0.000000 0.000000 0.000000 0.132455 1.129976 -0.030943 -0.131870 -1.130045 0.028336 5.150719 12.697236 -0.629369 -0.742790 -0.368252 1.999922 0.000000 0.000000 0.000000 0.000000 0.000000 0.000000 -0.000000 0.000000 0.000000 -0.320521 1.006304 0.023364 -1.830311 -0.951636 0.229116 5.276208 2.947006 -0.731330 0.000000 0.000000 0.000000 0.000000 0.000000 0.000000 0.671432 0.927171 -20.780260 -0.223870 -1.034980 -0.150922 13.391484 -48.767395 -11.250006 0.000000 0.000000 0.000000 0.094975 0.038901 -20.924300 -0.000000 0.000000 0.000000 -3.277039 11.259416 0.709243 0.000000 0.000000 0.000000
-67.610819 84.765011 325.690494 -0.095696 -0.025132 20.628662 0.098414 -0.010194 -20.628674 -0.000000 0.000000 0.000000 -0.000000 0.000000 0.000000 0.000000 0.000000 0.000000 0.160066 1.039821 -0.025917 -0.159622 -1.039889 0.023015 5.480589 13.486338 -0.707755 -1.925125 -1.965152 1.739104 0.000000 0.000000 0.000000 0.000000 0.000000 0.000000 -0.000000 0.000000 0.000000 -0.000000 0.000000 0.000000 -1.986623 0.090918 0.256794 6.015260 3.843741 -0.868314 0.000000 0.000000 0.000000 0.000000 0.000000 0.000000 0.759364 0.731743 -20.473122 -0.359756 -0.926222 -0.162622 13.371418 -49.553363 -12.034015 0.000000 0.000000 0.000000 0.098414 -0.010194 -20.628674 -0.000000 0.000000 0.000000 -3.826553 13.363478 0.796395 0.000000 0.000000 0.000000
-67.666583 84.750337 325.756676 -0.166868 -0.088967 20.662397 0.187527 0.024363 -20.662566 -0.000000 0.000000 0.000000 -0.000000 0.000000 0.000000 0.000000 0.000000 0.000000 0.210123 0.981658 -0.020557 0.560983 -0.338104 -0.069962 5.034977 10.493525 -0.529049 -2.371176 1.146969 1.807243 0.000000 0.000000 0.000000 0.000000 0.000000 0.000000 -0.000000 0.000000 0.000000 -0.000000 0.000000 0.000000 -3.042003 0.961382 0.280057 6.175376 3.238958 -0.768908 0.000000 0.000000 0.000000 0.000000 0.000000 0.000000 0.990949 0.697001 -20.483383 -0.517322 -0.911207 -0.188355 10.650451 -37.172575 -9.281036 0.000000 0.000000 0.000000 0.187527 0.024363 -20.662566 -0.000000 0.000000 0.000000 -3.031747 10.671720 0.565896 0.000000 0.000000 0.000000
-67.642974 84.735765 325.777534 -0.152465 -0.119752 20.755129 0.185007 0.057950 -20.755382 -0.000000 0.000000 0.000000 -0.000000 0.000000 0.000000 0.000000 0.000000 0.000000 0.356299 1.070032 -0.014421 0.436756 -0.264381 -0.076318 4.665105 9.329073 -0.438179 -1.858506 2.399306 1.877848 0.000000 0.000000 0.000000 0.000000 0.000000 0.000000 -0.000000 0.000000 0.000000 -0.589233 1.265295 0.078255 -4.959453 1.160605 0.283379 6.136545 1.197888 -0.574066 0.000000 0.000000 0.000000 0.000000 0.000000 0.000000 0.928731 0.544781 -20.594690 -0.524996 -0.717289 -0.167891 9.910218 -34.564312 -9.598928 0.000000 0.000000 0.000000 0.185007 0.057950 -20.755382 -0.000000 0.000000 0.000000 -2.692555 9.228495 0.564285 0.000000 0.000000 0.000000
-67.587442 84.742239 325.616744 -0.111415 0.065430 20.661993 0.081161 -0.100534 -20.661858 -0.000000 0.000000 0.000000 -0.000000 0.000000 0.000000 0.000000 0.000000 0.000000 0.572978 1.271299 -0.008538 0.147510 -0.405548 -0.073570 4.260679 9.208009 -0.383645 -1.156084 1.631903 1.829707 0.000000 0.000000 0.000000 0.000000 0.000000 0.000000 1.197893 -0.556392 -0.254759 -3.252438 2.539733 0.708153 -7.361736 2.943623 0.193728 7.905059 0.789930 -0.580754 0.000000 0.000000 0.000000 0.000000 0.000000 0.000000 0.081161 -0.100534 -20.661858 -0.000000 0.000000 0.000000 8.676465 -29.635692 -9.325348 0.000000 0.000000 0.000000 0.081161 -0.100534 -20.661858 -0.000000 0.000000 0.000000 -2.843095 9.250483 0.757441 0.000000 0.000000 0.000000
-67.414876 84.742562 325.647223 0.087739 -0.032680 20.746391 -0.070473 0.061640 -20.746328 -0.000000 0.000000 0.000000 1.045177 -0.512105 -0.063524 0.000000 0.000000 0.000000 0.793615 1.427609 -0.001296 -0.123512 -0.425617 -0.074874 2.982001 8.435758 -0.211090 -1.164787 1.204325 1.576389 0.000000 0.000000 0.000000 0.000000 0.000000 0.000000 2.477459 -0.482014 -0.362625 -8.068526 4.501462 1.748629 -7.428428 4.695381 -0.520204 8.683641 1.066483 -0.377250 0.000000 0.000000 0.000000 0.000000 0.000000 0.000000 -0.070473 0.061640 -20.746328 -0.000000 0.000000 0.000000 7.285753 -23.847275 -7.771113 0.000000 0.000000 0.000000 -0.070473 0.061640 -20.746328 -0.000000 0.000000 0.000000 -3.403287 10.677914 1.053467 0.000000 0.000000 0.000000
-67.143435 84.722219 325.873399 0.363989 -0.374725 20.975765 -0.205735 0.480186 -20.973713 -0.000000 0.000000 0.000000 2.086815 -1.297583 -0.229298 0.000000 0.000000 0.000000 0.910631 1.440781 0.005287 -0.507294 -0.468878 -0.048631 1.020524 7.575299 0.009793 0.559511 0.564821 1.379191 0.000000 0.000000 0.000000 0.000000 0.000000 0.000000 3.982541 -0.258729 -0.462267 -14.527770 6.932753 3.288241 -9.129623 8.068038 -1.079646 8.819263 -1.015104 -0.110484 0.000000 0.000000 0.000000 0.000000 0.000000 0.000000 -0.073650 1.443408 -20.910180 0.220409 -0.946922 -0.063929 4.966926 -15.209348 -5.078738 0.000000 0.000000 0.000000 -0.643713 1.255631 -20.849625 0.685302 -0.568744 -0.114052 -4.348636 13.329903 1.483367 0.000000 0.000000 0.000000
-66.749875 84.690880 326.111202 0.752874 -0.754510 21.209821 -0.428983 0.975737 -21.201211 -0.000000 0.000000 0.000000 3.508790 -2.708265 -0.563219 0.000000 0.000000 0.000000 0.898387 1.370487 0.007542 -0.898825 -1.370200 -0.029036 -0.928143 9.374431 0.283025 2.601313 -2.010254 1.184541 0.000000 0.000000 0.000000 0.000000 0.000000 0.000000 5.722846 0.359338 -0.513814 -22.287240 9.421617 5.174746 -9.022524 12.867257 -1.635430 7.987365 -6.796800 -0.123952 0.000000 0.000000 0.000000 0.000000 0.000000 0.000000 -0.768743 2.694370 -21.185923 0.938099 -1.479586 0.007707 4.000305 -11.931679 -4.056289 0.000000 0.000000 0.000000 -1.080692 2.372063 -20.946229 1.107873 -1.070900 -0.225589 -3.607795 11.138473 1.180456 0.000000 0.000000 0.000000
-66.300143 84.663948 326.333648 1.172348 -1.106780 21.352727 -0.182525 0.658819 -21.312097 -0.762173 0.560014 -0.026171 5.249161 -4.652278 -1.000608 0.000000 0.000000 0.000000 0.784391 1.063735 0.013316 -1.146722 -0.160628 0.056787 -3.590641 7.350387 0.486761 4.877433 -2.794461 0.861452 0.000000 0.000000 0.000000 0.000000 0.000000 0.000000 7.514286 1.683806 -0.462991 -31.656458 11.881773 7.379778 -6.950935 15.207271 -2.374440 5.184978 -8.485658 -1.165013 0.000000 0.000000 0.000000 0.000000 0.000000 0.000000 -1.550685 3.950293 -21.358315 1.710790 -2.007184 0.096302 4.962522 -15.187388 -5.103251 0.000000 0.000000 0.000000 -1.558619 3.544475 -20.922890 1.557630 -1.638378 -0.349526 -3.888847 12.065802 1.265457 0.000000 0.000000 0.000000
